<?xml version="1.0" encoding="utf-8"?>
<!-- Generator: Adobe Illustrator 27.1.0, SVG Export Plug-In . SVG Version: 6.00 Build 0)  -->
<svg version="1.1" id="Capa_1" xmlns="http://www.w3.org/2000/svg" xmlns:xlink="http://www.w3.org/1999/xlink" x="0px" y="0px"
	 viewBox="0 0 960 960" enable-background="new 0 0 960 960" xml:space="preserve">
<polygon fill-rule="evenodd" clip-rule="evenodd" points="1473.6,451.92 1953.6,451.92 1953.6,931.92 1473.6,931.92 1473.6,451.92 
	"/>
<polygon fill-rule="evenodd" clip-rule="evenodd" fill="#FFFFFF" points="993.6,451.92 1473.6,451.92 1473.6,931.92 993.6,931.92 
	993.6,451.92 "/>
<path fill="#14B8A6" d="M172.027,256.271h121.773h61.068h207.768h69.534h69.531l-52.787,332.856h209.874l-18.021,114.602H491.82
	l49.556-313.116v-0.008l4.616-29.162h-4.616h-20.767H293.801h-80.436h-57.982L172.027,256.271L172.027,256.271z M524.914,390.613
	c4.038,94.337-82.625,203.997-250.519,205.601h-17.749l-17.017,107.515H101.211l34.035-215.037
	c50.119,0,100.245-0.069,150.365,0.045c85.426,0.244,129.156-60.467,98.731-98.124H524.914L524.914,390.613z"/>
<path fill="#FFFFFF" d="M1597.62,607.669h45.859h22.999h78.245h26.186h26.186l-19.88,125.352h79.038l-6.787,43.159h-131.412
	l18.663-117.918v-0.003l1.738-10.982h-1.738h-7.821h-85.416h-30.292h-21.835L1597.62,607.669L1597.62,607.669z M1730.515,658.262
	c1.521,35.527-31.117,76.824-94.344,77.428h-6.685l-6.408,40.49h-52.128l12.818-80.982c18.875,0,37.751-0.026,56.626,0.017
	c32.17,0.092,48.64-22.772,37.182-36.953H1730.515L1730.515,658.262z"/>
<path fill="#1C2A39" d="M1117.62,607.665h45.859h22.999h78.245h26.186h26.186l-19.88,125.352h79.038l-6.787,43.159h-131.412
	l18.663-117.918v-0.003l1.738-10.982h-1.738h-7.821h-85.416h-30.292h-21.835L1117.62,607.665L1117.62,607.665z M1250.515,658.257
	c1.521,35.527-31.117,76.824-94.344,77.428h-6.684l-6.409,40.49h-52.128l12.818-80.982c18.875,0,37.752-0.026,56.626,0.017
	c32.171,0.092,48.64-22.772,37.182-36.953H1250.515L1250.515,658.257z"/>
</svg>
